# xmcd
#
# Track frame offsets:
#	150
#	13959
#	27513
#	43120
#	54272
#	68064
#	79296
#	92346
#	106626
#	122333
#	135240
#	148796
#	166432
#	180555
#	191561
#	205625
#	218414
#	232234
#	241368
#	254166
#
# Disc length: 3583 seconds
#
# Revision: 1
# Processed by: cddbd v1.5.1PL2 Copyright (c) Steve Scherf et al.
# Submitted via: audiograbber 1.83.01
#
DISCID=120dfd14
DTITLE=Diverse - Eine musikalische Weltreise
DYEAR=1900
DGENRE=
TTITLE0=Tulpen aus Amsterdamm
TTITLE1=Capri Fischer
TTITLE2=La Montanara
TTITLE3=Korsika
TTITLE4=Ein Schiff wird kommen
TTITLE5=Afrikaan Beat
TTITLE6=Eviva Espana
TTITLE7=Amerika
TTITLE8=Guantanamara
TTITLE9=Mexiko
TTITLE10=Jerusalem
TTITLE11=2 Ungarische Rhapsodie
TTITLE12=Jeder nette Lette
TTITLE13=Prager Polka
TTITLE14=Moldau
TTITLE15=Wolgaschlepper
TTITLE16=Wien Wien nur du allein
TTITLE17=Ganz Paris träumt von der Liebe
TTITLE18=Schwarzwaldfahrt
TTITLE19=Friesenlied (Wo die Nordseewellen)
EXTD=Schallplatte
EXTT0=
EXTT1=
EXTT2=
EXTT3=
EXTT4=
EXTT5=
EXTT6=
EXTT7=
EXTT8=
EXTT9=
EXTT10=
EXTT11=
EXTT12=
EXTT13=
EXTT14=
EXTT15=
EXTT16=
EXTT17=
EXTT18=
EXTT19=
PLAYORDER=
